<svg xmlns="http://www.w3.org/2000/svg" width="1em" height="1em" viewBox="0 0 48 48"><path fill="none" stroke="currentColor" stroke-linecap="round" stroke-linejoin="round" d="M24 2.5c-11.885.013-21.51 9.658-21.497 21.543A21.5 21.5 0 0 0 5.15 34.36L3.5 44.5l10.14-1.65c10.41 5.71 23.48 1.901 29.19-8.51s1.902-23.479-8.509-29.19a21.5 21.5 0 0 0-10.32-2.65Zm-10.75 9.77h5.86a1 1 0 0 1 1 1a10.4 10.4 0 0 0 .66 3.91a1.93 1.93 0 0 1-.66 2.44l-2.05 2a18.6 18.6 0 0 0 3.52 4.79A18.6 18.6 0 0 0 26.35 30l2-2.05c1-1 1.46-1 2.44-.66a10.4 10.4 0 0 0 3.91.66a1.05 1.05 0 0 1 1 1v5.86a1.05 1.05 0 0 1-1 1a23.68 23.68 0 0 1-15.64-6.84a23.6 23.6 0 0 1-6.84-15.64a1.07 1.07 0 0 1 1.03-1.06"/></svg>